<svg xmlns="http://www.w3.org/2000/svg" width="125" height="32" fill="none" viewBox="0 0 125 32">
  <path fill="#2FCAB6" fill-rule="evenodd" d="M15.95 0c8.8 0 15.95 7.16 15.95 16 0 8.83-7.14 16-15.95 16C7.15 32 0 24.83 0 16 0 7.16 7.14 0 15.95 0Zm8.02 13.3h1.51v-1.51h-1.5v1.51Zm-1.94-1.51h-4.96v1.51h3.45v6.91h1.5V11.8ZM10.1 16.76h5.01v-1.52h-5v1.52Zm0-3.46h5.01v-1.51h-5v1.51ZM6.7 11.79v8.42h1.5V11.8H6.7Z" clip-rule="evenodd"/>
  <path fill="#353535" fill-rule="evenodd" d="M40.79 18.88c-.24.04-.35.4-.35.74 0 .32.08.61.3.61h3.91c.2 0 .3-.3.3-.63s-.12-.68-.36-.72l-.9-.13v-1.9h1.98c.21 0 .33-.39.33-.78 0-.4-.12-.78-.33-.78H43.7V13.3H46l.17 1.04c.04.24.52.35.86.35.31 0 .64-.08.64-.3v-2.64h-7.05c-.22 0-.3.3-.3.6 0 .34.1.7.35.74l.9.14v5.52l-.78.13Zm6.52-1.68c0 2.07 1.47 3.14 3.37 3.14 1.9 0 3.37-1.07 3.37-3.14 0-2.07-1.48-3.15-3.37-3.15-1.9 0-3.37 1.08-3.37 3.15Zm3.37 1.69c-.84 0-1.28-.82-1.28-1.69s.44-1.7 1.28-1.7c.83 0 1.28.83 1.28 1.7s-.45 1.69-1.28 1.69Zm4.5 0c-.24.04-.35.4-.35.73 0 .32.09.61.3.61h3.62c.2 0 .29-.3.29-.63s-.11-.68-.36-.72l-.77-.13V16.9c0-1.12.64-1.22 1.47-1.22l1.08.25c.25-.21.41-.7.41-1.14 0-.23-.04-.45-.12-.63a3.2 3.2 0 0 0-.92-.1 2.5 2.5 0 0 0-1.98.92c0-.58-.31-.8-.9-.8h-2.1c-.22 0-.32.3-.32.63 0 .37.16.7.4.73l.93.14v3.08l-.68.13Zm7.43-.7c0 1.47.83 2.15 2.26 2.15.95 0 1.78-.3 2.3-.57a.77.77 0 0 0 .03-.24c0-.37-.18-.81-.5-.91-.37.1-.7.23-1.24.23-.6 0-.8-.3-.8-.89v-2.4h1.55c.23 0 .34-.36.34-.7 0-.35-.11-.7-.34-.7h-1.55v-1.54c0-.2-.31-.31-.67-.31-.49 0-1.05.18-1.11.52l-.27 1.33h-.96c-.23 0-.36.35-.36.7 0 .34.12.7.36.7h.96v2.62Zm11.2.7c-.23.03-.34.4-.34.73 0 .32.08.61.3.61h4.03c.2 0 .3-.3.3-.63s-.12-.68-.36-.72l-.9-.13V13.3h1.38l.2 1.26c.03.24.47.35.8.35.32 0 .67-.08.67-.3v-2.86h-8.22v2.86c0 .22.35.3.66.3.34 0 .78-.1.81-.35l.2-1.26h1.37v5.45l-.9.13Zm12.22-1.24v-.5c0-1.6-.8-3.1-3.01-3.1-1.86 0-3.37 1.13-3.37 3.19 0 2.42 1.7 3.1 3.5 3.1.95 0 2.12-.25 2.9-.79 0-.55-.2-.95-.6-1.06a5.2 5.2 0 0 1-2.05.36c-1.25 0-1.58-.56-1.65-1.2h4.28Zm-4.24-1.08c.1-.94.8-1.16 1.15-1.16.46 0 .96.25 1.06 1.16h-2.21Zm5.28 2.31c-.24.05-.35.4-.35.74 0 .32.08.61.3.61h3.6c.21 0 .3-.3.3-.63s-.11-.68-.35-.72l-.78-.13v-6.44c0-.7-.13-1.04-.84-1.04h-2.22c-.22 0-.32.3-.32.64 0 .36.16.69.4.72l.93.15v5.97l-.67.13Zm10.77-1.23v-.5c0-1.6-.8-3.1-3-3.1-1.87 0-3.38 1.13-3.38 3.19 0 2.42 1.7 3.1 3.5 3.1.95 0 2.12-.25 2.9-.79 0-.55-.2-.95-.6-1.06a5.2 5.2 0 0 1-2.05.36c-1.25 0-1.57-.56-1.65-1.2h4.28Zm-4.24-1.08c.1-.94.8-1.16 1.15-1.16.46 0 .96.25 1.06 1.16H93.6Zm9.54-.14c.05.29.52.38.86.38.38 0 .63-.13.63-.3v-1.96a6.48 6.48 0 0 0-2.31-.5c-2.14 0-3.73 1.2-3.73 3.2 0 2.42 1.75 3.09 3.39 3.09 1.02 0 2.1-.27 2.91-.78 0-.44-.1-.92-.6-1.1-.66.25-1.03.39-2.03.39-1.19 0-1.58-.75-1.58-1.6 0-.87.44-1.74 1.57-1.74.35 0 .55.02.75.06l.14.86Zm2.24.77c0 2.07 1.47 3.14 3.36 3.14 1.9 0 3.37-1.07 3.37-3.14 0-2.07-1.47-3.15-3.37-3.15-1.9 0-3.36 1.08-3.36 3.15Zm3.36 1.69c-.83 0-1.28-.82-1.28-1.69s.45-1.7 1.28-1.7c.84 0 1.28.83 1.28 1.7s-.44 1.69-1.28 1.69Zm4.5 0c-.23.04-.34.4-.34.73 0 .32.08.61.3.61h3.55c.2 0 .3-.3.3-.63s-.12-.68-.36-.72l-.77-.13v-1.93c0-.94.54-1.2 1.01-1.2.71 0 .87.49.87.99v2.58c0 .7.14 1.04.85 1.04h1.95c.22 0 .32-.3.32-.64 0-.37-.16-.68-.4-.73l-.73-.15v-1.89c0-.95.56-1.2 1.02-1.2.71 0 .87.49.87.99v2.58c0 .7.13 1.04.84 1.04h2.17c.21 0 .3-.3.3-.64 0-.37-.15-.7-.39-.73l-.93-.15v-2.37c0-2-.99-2.29-2.04-2.29-.66 0-1.39.23-2.05 1.03-.34-.82-1.08-1.03-1.83-1.03-.72 0-1.43.34-1.9.87 0-.59-.3-.76-.9-.76h-2.04c-.22 0-.31.3-.31.64 0 .37.15.7.4.73l.93.15v3.07l-.68.13Z" clip-rule="evenodd"/>
</svg>
